<?xml version="1.0" encoding="UTF-8" standalone="no"?>
<!DOCTYPE svg PUBLIC "-//W3C//DTD SVG 1.1//EN"
 "http://www.w3.org/Graphics/SVG/1.1/DTD/svg11.dtd">
<!-- Generated by graphviz version 12.1.0 (20240811.2233)
 -->
<!-- Pages: 1 -->
<svg width="247pt" height="404pt"
 viewBox="0.00 0.00 247.30 404.00" xmlns="http://www.w3.org/2000/svg" xmlns:xlink="http://www.w3.org/1999/xlink">
<g id="graph0" class="graph" transform="scale(1 1) rotate(0) translate(4 400)">
<polygon fill="white" stroke="none" points="-4,4 -4,-400 243.3,-400 243.3,4 -4,4"/>
<!-- Terra -->
<g id="node1" class="node">
<title>Terra</title>
<ellipse fill="none" stroke="blue" cx="76.72" cy="-378" rx="30.37" ry="18"/>
<text text-anchor="middle" x="76.72" y="-372.95" font-family="Times New Roman,serif" font-size="14.00">Terra</text>
</g>
<!-- Mercurio -->
<g id="node2" class="node">
<title>Mercurio</title>
<ellipse fill="none" stroke="black" cx="45.72" cy="-234" rx="45.72" ry="18"/>
<text text-anchor="middle" x="45.72" y="-228.95" font-family="Times New Roman,serif" font-size="14.00">Mercurio</text>
</g>
<!-- Terra&#45;&gt;Mercurio -->
<g id="edge1" class="edge">
<title>Terra&#45;&gt;Mercurio</title>
<path fill="none" stroke="black" d="M72.78,-359.83C70.41,-349.46 67.36,-335.98 64.72,-324 60.28,-303.81 55.42,-281.02 51.72,-263.55"/>
<polygon fill="black" stroke="black" points="55.17,-262.95 49.68,-253.89 48.32,-264.4 55.17,-262.95"/>
</g>
<!-- Plutao -->
<g id="node3" class="node">
<title>Plutao</title>
<ellipse fill="none" stroke="black" cx="107.72" cy="-306" rx="34.46" ry="18"/>
<text text-anchor="middle" x="107.72" y="-300.95" font-family="Times New Roman,serif" font-size="14.00">Plutao</text>
</g>
<!-- Terra&#45;&gt;Plutao -->
<g id="edge3" class="edge">
<title>Terra&#45;&gt;Plutao</title>
<path fill="none" stroke="black" d="M84.07,-360.41C87.53,-352.59 91.75,-343.06 95.66,-334.23"/>
<polygon fill="black" stroke="black" points="98.75,-335.9 99.6,-325.34 92.35,-333.07 98.75,-335.9"/>
</g>
<!-- Venus -->
<g id="node4" class="node">
<title>Venus</title>
<ellipse fill="none" stroke="black" cx="80.72" cy="-162" rx="33.44" ry="18"/>
<text text-anchor="middle" x="80.72" y="-156.95" font-family="Times New Roman,serif" font-size="14.00">Venus</text>
</g>
<!-- Mercurio&#45;&gt;Venus -->
<g id="edge5" class="edge">
<title>Mercurio&#45;&gt;Venus</title>
<path fill="none" stroke="black" d="M54.19,-216.05C58.11,-208.23 62.85,-198.75 67.23,-189.98"/>
<polygon fill="black" stroke="black" points="70.31,-191.65 71.65,-181.14 64.05,-188.52 70.31,-191.65"/>
</g>
<!-- Plutao&#45;&gt;Mercurio -->
<g id="edge4" class="edge">
<title>Plutao&#45;&gt;Mercurio</title>
<path fill="none" stroke="black" d="M93.65,-289.12C85.99,-280.47 76.35,-269.58 67.72,-259.83"/>
<polygon fill="black" stroke="black" points="70.42,-257.61 61.17,-252.44 65.18,-262.25 70.42,-257.61"/>
</g>
<!-- Plutao&#45;&gt;Venus -->
<g id="edge2" class="edge">
<title>Plutao&#45;&gt;Venus</title>
<path fill="none" stroke="black" d="M107.8,-287.73C107.54,-269.64 106.19,-240.51 100.72,-216 98.81,-207.42 95.79,-198.37 92.68,-190.23"/>
<polygon fill="black" stroke="black" points="96.02,-189.17 89.03,-181.21 89.54,-191.8 96.02,-189.17"/>
</g>
<!-- Urano -->
<g id="node5" class="node">
<title>Urano</title>
<ellipse fill="none" stroke="black" cx="199.72" cy="-162" rx="33.95" ry="18"/>
<text text-anchor="middle" x="199.72" y="-156.95" font-family="Times New Roman,serif" font-size="14.00">Urano</text>
</g>
<!-- Netuno -->
<g id="node6" class="node">
<title>Netuno</title>
<ellipse fill="none" stroke="black" cx="199.72" cy="-90" rx="38.04" ry="18"/>
<text text-anchor="middle" x="199.72" y="-84.95" font-family="Times New Roman,serif" font-size="14.00">Netuno</text>
</g>
<!-- Urano&#45;&gt;Netuno -->
<g id="edge6" class="edge">
<title>Urano&#45;&gt;Netuno</title>
<path fill="none" stroke="black" d="M199.72,-143.7C199.72,-136.41 199.72,-127.73 199.72,-119.54"/>
<polygon fill="black" stroke="black" points="203.22,-119.62 199.72,-109.62 196.22,-119.62 203.22,-119.62"/>
</g>
<!-- Saturno -->
<g id="node7" class="node">
<title>Saturno</title>
<ellipse fill="none" stroke="black" cx="199.72" cy="-18" rx="39.58" ry="18"/>
<text text-anchor="middle" x="199.72" y="-12.95" font-family="Times New Roman,serif" font-size="14.00">Saturno</text>
</g>
<!-- Netuno&#45;&gt;Saturno -->
<g id="edge7" class="edge">
<title>Netuno&#45;&gt;Saturno</title>
<path fill="none" stroke="black" d="M199.72,-71.7C199.72,-64.41 199.72,-55.73 199.72,-47.54"/>
<polygon fill="black" stroke="black" points="203.22,-47.62 199.72,-37.62 196.22,-47.62 203.22,-47.62"/>
</g>
<!-- Satuno -->
<g id="node8" class="node">
<title>Satuno</title>
<ellipse fill="none" stroke="black" cx="199.72" cy="-378" rx="36.51" ry="18"/>
<text text-anchor="middle" x="199.72" y="-372.95" font-family="Times New Roman,serif" font-size="14.00">Satuno</text>
</g>
<!-- Jupiter -->
<g id="node9" class="node">
<title>Jupiter</title>
<ellipse fill="none" stroke="black" cx="199.72" cy="-306" rx="36" ry="18"/>
<text text-anchor="middle" x="199.72" y="-300.95" font-family="Times New Roman,serif" font-size="14.00">Jupiter</text>
</g>
<!-- Satuno&#45;&gt;Jupiter -->
<g id="edge8" class="edge">
<title>Satuno&#45;&gt;Jupiter</title>
<path fill="none" stroke="black" d="M199.72,-359.7C199.72,-352.41 199.72,-343.73 199.72,-335.54"/>
<polygon fill="black" stroke="black" points="203.22,-335.62 199.72,-325.62 196.22,-335.62 203.22,-335.62"/>
</g>
<!-- Marte -->
<g id="node10" class="node">
<title>Marte</title>
<ellipse fill="none" stroke="black" cx="199.72" cy="-234" rx="33.44" ry="18"/>
<text text-anchor="middle" x="199.72" y="-228.95" font-family="Times New Roman,serif" font-size="14.00">Marte</text>
</g>
<!-- Jupiter&#45;&gt;Marte -->
<g id="edge9" class="edge">
<title>Jupiter&#45;&gt;Marte</title>
<path fill="none" stroke="black" d="M199.72,-287.7C199.72,-280.41 199.72,-271.73 199.72,-263.54"/>
<polygon fill="black" stroke="black" points="203.22,-263.62 199.72,-253.62 196.22,-263.62 203.22,-263.62"/>
</g>
<!-- Marte&#45;&gt;Urano -->
<g id="edge10" class="edge">
<title>Marte&#45;&gt;Urano</title>
<path fill="none" stroke="black" d="M199.72,-215.7C199.72,-208.41 199.72,-199.73 199.72,-191.54"/>
<polygon fill="black" stroke="black" points="203.22,-191.62 199.72,-181.62 196.22,-191.62 203.22,-191.62"/>
</g>
</g>
</svg>
