<?xml version="1.0" encoding="UTF-8" standalone="no"?>
<!DOCTYPE svg PUBLIC "-//W3C//DTD SVG 1.1//EN"
 "http://www.w3.org/Graphics/SVG/1.1/DTD/svg11.dtd">
<!-- Generated by graphviz version 12.1.0 (20240811.2233)
 -->
<!-- Pages: 1 -->
<svg width="228pt" height="457pt"
 viewBox="0.00 0.00 227.65 456.51" xmlns="http://www.w3.org/2000/svg" xmlns:xlink="http://www.w3.org/1999/xlink">
<g id="graph0" class="graph" transform="scale(1 1) rotate(-90) translate(-452.51 223.65)">
<polygon fill="white" stroke="none" points="-4,4 -4,-223.65 452.51,-223.65 452.51,4 -4,4"/>
<!-- 1 -->
<g id="node1" class="node">
<title>1</title>
<ellipse fill="none" stroke="black" cx="224.29" cy="-201.65" rx="27" ry="18"/>
<text text-anchor="middle" x="224.29" y="-196.6" font-family="Times New Roman,serif" font-size="14.00">1</text>
</g>
<!-- 4 -->
<g id="node2" class="node">
<title>4</title>
<ellipse fill="none" stroke="black" cx="27" cy="-109.76" rx="27" ry="18"/>
<text text-anchor="middle" x="27" y="-104.71" font-family="Times New Roman,serif" font-size="14.00">4</text>
</g>
<!-- 1&#45;&#45;4 -->
<g id="edge1" class="edge">
<title>1&#45;&#45;4</title>
<path fill="none" stroke="black" d="M202.04,-191.28C164.15,-173.64 87.51,-137.94 49.47,-120.23"/>
</g>
<!-- 3 -->
<g id="node3" class="node">
<title>3</title>
<ellipse fill="none" stroke="black" cx="224.16" cy="-18" rx="27" ry="18"/>
<text text-anchor="middle" x="224.16" y="-12.95" font-family="Times New Roman,serif" font-size="14.00">3</text>
</g>
<!-- 1&#45;&#45;3 -->
<g id="edge2" class="edge">
<title>1&#45;&#45;3</title>
<path fill="none" stroke="black" d="M224.27,-183.37C224.25,-148.26 224.19,-71.74 224.17,-36.48"/>
</g>
<!-- 2 -->
<g id="node4" class="node">
<title>2</title>
<ellipse fill="none" stroke="black" cx="421.51" cy="-109.7" rx="27" ry="18"/>
<text text-anchor="middle" x="421.51" y="-104.65" font-family="Times New Roman,serif" font-size="14.00">2</text>
</g>
<!-- 1&#45;&#45;2 -->
<g id="edge3" class="edge">
<title>1&#45;&#45;2</title>
<path fill="none" stroke="black" d="M246.53,-191.28C284.4,-173.62 361.02,-137.9 399.05,-120.17"/>
</g>
<!-- 4&#45;&#45;3 -->
<g id="edge7" class="edge">
<title>4&#45;&#45;3</title>
<path fill="none" stroke="black" d="M52.31,-103.01C92.55,-87.6 170.06,-51.43 205.59,-31.39"/>
</g>
<!-- 3&#45;&#45;4 -->
<g id="edge5" class="edge">
<title>3&#45;&#45;4</title>
<path fill="none" stroke="black" d="M198.84,-24.76C158.61,-40.17 81.1,-76.34 45.56,-96.37"/>
</g>
<!-- 3&#45;&#45;2 -->
<g id="edge6" class="edge">
<title>3&#45;&#45;2</title>
<path fill="none" stroke="black" d="M242.72,-31.37C278.22,-51.36 355.63,-87.43 395.97,-102.88"/>
</g>
<!-- 2&#45;&#45;3 -->
<g id="edge4" class="edge">
<title>2&#45;&#45;3</title>
<path fill="none" stroke="black" d="M402.95,-96.33C367.45,-76.34 290.03,-40.27 249.69,-24.83"/>
</g>
</g>
</svg>
